# xmcd
#
# Track frame offsets:
#	150
#	12822
#	23322
#	33235
#	43970
#	58887
#	67977
#	79467
#	91445
#	103777
#	112885
#	123235
#	134837
#	143955
#
# Disc length: 2112 seconds
#
# Revision: 0
# Processed by: cddbd v1.5.2PL0 Copyright (c) Steve Scherf et al.
# Submitted via: audiograbber 1.83.01
#
DISCID=bf083e0e
DTITLE=Pignitter Baum - 20 Jahre
DYEAR=1900
DGENRE=Volksmusik
TTITLE0=Jubiläumspolka
TTITLE1=Steirischer Hochzeitsmarsch
TTITLE2=Auf der Alm
TTITLE3=Gamsbart Polka
TTITLE4=Beim heiligen Wasser
TTITLE5=Vollgas Polka
TTITLE6=Sunnwed Polka
TTITLE7=Steirer san ma selber do
TTITLE8=Der Harem
TTITLE9=Beim Lacknerwirt
TTITLE10=Fleischhacker Rock
TTITLE11=A Steirer waunst bist
TTITLE12=Kirchplatzpolka
TTITLE13=Morgenmuffel
EXTD=
EXTT0=
EXTT1=
EXTT2=
EXTT3=
EXTT4=
EXTT5=
EXTT6=
EXTT7=
EXTT8=
EXTT9=
EXTT10=
EXTT11=
EXTT12=
EXTT13=
PLAYORDER=
